<svg xmlns="http://www.w3.org/2000/svg" viewBox="0 0 18 18" width="18" height="18">
  <defs>
    <linearGradient id="fab-a" x1="4" y1="2" x2="14" y2="16" gradientUnits="userSpaceOnUse">
      <stop offset="0" stop-color="#3fd6c6"/>
      <stop offset="1" stop-color="#0b8f8f"/>
    </linearGradient>
    <linearGradient id="fab-b" x1="4" y1="2" x2="14" y2="16" gradientUnits="userSpaceOnUse">
      <stop offset="0" stop-color="#7ee8db"/>
      <stop offset="1" stop-color="#19b3a6"/>
    </linearGradient>
  </defs>
  <!-- Microsoft Fabric: flowing rounded parallelogram tiles cascading diagonally -->
  <g>
    <path d="M6.7 2.3h4.0c.5 0 .8.5.6 1.0L9.5 7.0c-.15.35-.5.55-.9.55h-4.0c-.5 0-.8-.5-.6-1.0L5.8 2.85c.15-.35.5-.55.9-.55z" fill="url(#fab-b)"/>
    <path d="M11.0 5.6h3.6c.5 0 .8.5.6 1.0l-1.7 3.6c-.16.34-.5.56-.88.56H9.0c-.5 0-.82-.5-.6-1.0l1.72-3.65c.16-.34.5-.55.88-.55z" fill="url(#fab-a)"/>
    <path d="M6.0 9.1h3.7c.5 0 .82.5.6 1.0l-1.72 3.65c-.16.34-.5.55-.88.55H4.0c-.5 0-.82-.5-.6-1.0l1.72-3.65c.16-.34.5-.55.88-.55z" fill="url(#fab-b)"/>
    <path d="M10.4 12.5h3.6c.5 0 .8.5.58 1.0l-.7 1.55c-.16.34-.5.55-.88.55H9.4c-.5 0-.82-.5-.6-1.0l.72-1.55c.16-.34.5-.55.88-.55z" fill="url(#fab-a)"/>
  </g>
</svg>
