<svg xmlns="http://www.w3.org/2000/svg" viewBox="0 0 18 18" width="18" height="18">
  <defs><linearGradient id="sp-g" x1="3" y1="3" x2="15" y2="15" gradientUnits="userSpaceOnUse"><stop offset="0" stop-color="#3aa0a1"/><stop offset="1" stop-color="#1b6b6b"/></linearGradient></defs>
  <circle cx="7" cy="6" r="4.3" fill="#1b7b7b"/>
  <circle cx="11.6" cy="9.3" r="3.9" fill="url(#sp-g)"/>
  <circle cx="9" cy="13" r="3.3" fill="#2d8f8f"/>
  <path fill="#fff" d="M6.1 4.5c1.7 0 2.6.9 2.6 2 0 2.4-3.4 1.9-3.4 3 0 .4.4.65 1 .65.55 0 1-.2 1.35-.5l.75 1.05c-.55.5-1.35.75-2.2.75-1.6 0-2.6-.85-2.6-2 0-2.45 3.4-1.9 3.4-3 0-.4-.4-.6-.9-.6-.5 0-1 .2-1.35.55l-.75-1.05c.5-.5 1.3-.8 2.1-.8z"/>
</svg>
